<svg xmlns="http://www.w3.org/2000/svg" width="512" height="512" viewBox="0 0 512 512">
  <defs>
    <linearGradient id="bg" x1="0%" y1="0%" x2="100%" y2="100%">
      <stop offset="0%" style="stop-color:#111827"/>
      <stop offset="100%" style="stop-color:#1F2937"/>
    </linearGradient>
  </defs>
  <!-- Background -->
  <rect width="512" height="512" rx="96" fill="url(#bg)"/>
  <!-- Building -->
  <rect x="96" y="120" width="192" height="300" rx="16" fill="white" opacity="0.95"/>
  <!-- Building windows row 1 -->
  <rect x="124" y="156" width="40" height="32" rx="4" fill="#374151"/>
  <rect x="180" y="156" width="40" height="32" rx="4" fill="#374151"/>
  <rect x="236" y="156" width="40" height="32" rx="4" fill="#374151"/>
  <!-- Building windows row 2 -->
  <rect x="124" y="208" width="40" height="32" rx="4" fill="#374151"/>
  <rect x="180" y="208" width="40" height="32" rx="4" fill="#374151"/>
  <rect x="236" y="208" width="40" height="32" rx="4" fill="#374151"/>
  <!-- Building windows row 3 -->
  <rect x="124" y="260" width="40" height="32" rx="4" fill="#374151"/>
  <rect x="180" y="260" width="40" height="32" rx="4" fill="#374151"/>
  <rect x="236" y="260" width="40" height="32" rx="4" fill="#374151"/>
  <!-- Building windows row 4 -->
  <rect x="124" y="312" width="40" height="32" rx="4" fill="#374151"/>
  <rect x="180" y="312" width="40" height="32" rx="4" fill="#374151"/>
  <rect x="236" y="312" width="40" height="32" rx="4" fill="#374151"/>
  <!-- Building door -->
  <rect x="160" y="370" width="64" height="50" rx="8" fill="#1B6B4A"/>
  <!-- Gear -->
  <g transform="translate(312, 232)">
    <circle cx="56" cy="56" r="72" fill="#1B6B4A"/>
    <!-- Gear teeth -->
    <path d="M56 0 L64 16 L48 16 Z" fill="white" opacity="0.9"/>
    <path d="M56 112 L48 96 L64 96 Z" fill="white" opacity="0.9"/>
    <path d="M0 56 L16 48 L16 64 Z" fill="white" opacity="0.9"/>
    <path d="M112 56 L96 64 L96 48 Z" fill="white" opacity="0.9"/>
    <path d="M16 16 L28 24 L24 28 Z" fill="white" opacity="0.9"/>
    <path d="M96 96 L84 88 L88 84 Z" fill="white" opacity="0.9"/>
    <path d="M96 16 L88 28 L84 24 Z" fill="white" opacity="0.9"/>
    <path d="M16 96 L24 84 L28 88 Z" fill="white" opacity="0.9"/>
    <!-- Gear center -->
    <circle cx="56" cy="56" r="32" fill="#1B6B4A"/>
    <circle cx="56" cy="56" r="24" fill="white"/>
    <circle cx="56" cy="56" r="12" fill="#1B6B4A"/>
  </g>
</svg>
