<svg xmlns="http://www.w3.org/2000/svg" width="192" height="192" viewBox="0 0 192 192">
  <defs>
    <linearGradient id="bg" x1="0%" y1="0%" x2="100%" y2="100%">
      <stop offset="0%" style="stop-color:#111827"/>
      <stop offset="100%" style="stop-color:#1F2937"/>
    </linearGradient>
  </defs>
  <!-- Background -->
  <rect width="192" height="192" rx="40" fill="url(#bg)"/>
  <!-- Building -->
  <rect x="40" y="52" width="68" height="108" rx="6" fill="white" opacity="0.95"/>
  <!-- Building windows -->
  <rect x="52" y="66" width="14" height="12" rx="2" fill="#374151"/>
  <rect x="74" y="66" width="14" height="12" rx="2" fill="#374151"/>
  <rect x="52" y="86" width="14" height="12" rx="2" fill="#374151"/>
  <rect x="74" y="86" width="14" height="12" rx="2" fill="#374151"/>
  <rect x="52" y="106" width="14" height="12" rx="2" fill="#374151"/>
  <rect x="74" y="106" width="14" height="12" rx="2" fill="#374151"/>
  <!-- Building door -->
  <rect x="60" y="132" width="28" height="28" rx="4" fill="#1B6B4A"/>
  <!-- Gear -->
  <g transform="translate(124, 96)">
    <circle cx="24" cy="24" r="32" fill="#1B6B4A"/>
    <!-- Gear teeth -->
    <path d="M24 0 L28 8 L20 8 Z" fill="white" opacity="0.9"/>
    <path d="M24 48 L20 40 L28 40 Z" fill="white" opacity="0.9"/>
    <path d="M0 24 L8 20 L8 28 Z" fill="white" opacity="0.9"/>
    <path d="M48 24 L40 28 L40 20 Z" fill="white" opacity="0.9"/>
    <path d="M7 7 L14 11 L11 14 Z" fill="white" opacity="0.9"/>
    <path d="M41 41 L34 37 L37 34 Z" fill="white" opacity="0.9"/>
    <path d="M41 7 L37 14 L34 11 Z" fill="white" opacity="0.9"/>
    <path d="M7 41 L11 34 L14 37 Z" fill="white" opacity="0.9"/>
    <!-- Gear center -->
    <circle cx="24" cy="24" r="14" fill="#1B6B4A"/>
    <circle cx="24" cy="24" r="10" fill="white"/>
    <circle cx="24" cy="24" r="5" fill="#1B6B4A"/>
  </g>
</svg>
