<svg xmlns="http://www.w3.org/2000/svg" width="512" height="512" viewBox="0 0 512 512">
  <defs>
    <linearGradient id="bg" x1="0%" y1="0%" x2="100%" y2="100%">
      <stop offset="0%" style="stop-color:#1B6B4A"/>
      <stop offset="100%" style="stop-color:#145236"/>
    </linearGradient>
  </defs>
  <!-- Background -->
  <rect width="512" height="512" rx="96" fill="url(#bg)"/>
  <!-- Clipboard body -->
  <rect x="128" y="112" width="256" height="310" rx="24" fill="white" opacity="0.95"/>
  <!-- Clipboard clip -->
  <rect x="192" y="80" width="128" height="52" rx="14" fill="white"/>
  <rect x="212" y="92" width="88" height="28" rx="10" fill="#1B6B4A"/>
  <!-- Checkmark line 1 -->
  <circle cx="192" cy="208" r="20" fill="#1B6B4A" opacity="0.2"/>
  <path d="M180 208 L189 217 L206 198" stroke="#1B6B4A" stroke-width="6" stroke-linecap="round" stroke-linejoin="round" fill="none"/>
  <rect x="228" y="198" width="120" height="10" rx="5" fill="#1B6B4A" opacity="0.3"/>
  <rect x="228" y="216" width="80" height="8" rx="4" fill="#1B6B4A" opacity="0.15"/>
  <!-- Checkmark line 2 -->
  <circle cx="192" cy="290" r="20" fill="#1B6B4A" opacity="0.2"/>
  <path d="M180 290 L189 299 L206 280" stroke="#1B6B4A" stroke-width="6" stroke-linecap="round" stroke-linejoin="round" fill="none"/>
  <rect x="228" y="280" width="120" height="10" rx="5" fill="#1B6B4A" opacity="0.3"/>
  <rect x="228" y="298" width="90" height="8" rx="4" fill="#1B6B4A" opacity="0.15"/>
  <!-- Checkmark line 3 -->
  <circle cx="192" cy="372" r="20" fill="#1B6B4A" opacity="0.2"/>
  <path d="M180 372 L189 381 L206 362" stroke="#1B6B4A" stroke-width="6" stroke-linecap="round" stroke-linejoin="round" fill="none"/>
  <rect x="228" y="362" width="100" height="10" rx="5" fill="#1B6B4A" opacity="0.3"/>
  <rect x="228" y="380" width="70" height="8" rx="4" fill="#1B6B4A" opacity="0.15"/>
  <!-- Pencil circle -->
  <circle cx="340" cy="360" r="48" fill="#E8913A"/>
  <g transform="translate(316, 336)">
    <path d="M20 8 L40 28 L30 38 L10 18 Z" stroke="white" stroke-width="4" fill="none" stroke-linecap="round" stroke-linejoin="round"/>
    <path d="M10 18 L6 42 L30 38" stroke="white" stroke-width="4" fill="none" stroke-linecap="round" stroke-linejoin="round"/>
  </g>
</svg>
