<svg xmlns="http://www.w3.org/2000/svg" width="512" height="512" viewBox="0 0 512 512">
  <defs>
    <linearGradient id="bg" x1="0%" y1="0%" x2="100%" y2="100%">
      <stop offset="0%" style="stop-color:#2D9D6A"/>
      <stop offset="100%" style="stop-color:#1B6B4A"/>
    </linearGradient>
  </defs>
  <!-- Background -->
  <rect width="512" height="512" rx="96" fill="url(#bg)"/>
  <!-- Notebook -->
  <rect x="112" y="88" width="288" height="352" rx="24" fill="white" opacity="0.95"/>
  <!-- Notebook spine -->
  <rect x="112" y="88" width="32" height="352" rx="10" fill="#F0E6D3"/>
  <!-- Lines on notebook -->
  <line x1="172" y1="168" x2="368" y2="168" stroke="#1B6B4A" stroke-width="3" opacity="0.2"/>
  <line x1="172" y1="212" x2="368" y2="212" stroke="#1B6B4A" stroke-width="3" opacity="0.2"/>
  <line x1="172" y1="256" x2="368" y2="256" stroke="#1B6B4A" stroke-width="3" opacity="0.2"/>
  <line x1="172" y1="300" x2="368" y2="300" stroke="#1B6B4A" stroke-width="3" opacity="0.2"/>
  <line x1="172" y1="344" x2="368" y2="344" stroke="#1B6B4A" stroke-width="3" opacity="0.2"/>
  <line x1="172" y1="388" x2="368" y2="388" stroke="#1B6B4A" stroke-width="3" opacity="0.2"/>
  <!-- Pen writing lines -->
  <path d="M180 164 Q210 152 240 168 Q270 184 300 168 Q330 152 356 172" stroke="#1B6B4A" stroke-width="5" fill="none" stroke-linecap="round" opacity="0.6"/>
  <path d="M180 208 Q220 224 260 208 Q290 196 330 216" stroke="#1B6B4A" stroke-width="5" fill="none" stroke-linecap="round" opacity="0.4"/>
  <path d="M180 252 Q200 244 230 256 Q260 268 290 252" stroke="#1B6B4A" stroke-width="5" fill="none" stroke-linecap="round" opacity="0.3"/>
  <!-- Smiley face (child-friendly) -->
  <circle cx="270" cy="340" r="44" fill="#FFF3D6" stroke="#E8913A" stroke-width="4"/>
  <circle cx="254" cy="330" r="5.5" fill="#1B6B4A"/>
  <circle cx="286" cy="330" r="5.5" fill="#1B6B4A"/>
  <path d="M252 354 Q270 370 288 354" stroke="#1B6B4A" stroke-width="5" fill="none" stroke-linecap="round"/>
  <!-- Sparkle (AI/magic) -->
  <g transform="translate(338, 88)">
    <circle cx="44" cy="44" r="44" fill="#E8913A"/>
    <path d="M44 16 L50 34 L68 34 L54 46 L58 64 L44 54 L30 64 L34 46 L20 34 L38 34 Z" fill="white" opacity="0.95"/>
  </g>
</svg>
